<svg xmlns="http://www.w3.org/2000/svg" width="400" height="400" viewBox="0 0 400 400" preserveAspectRatio="xMidYMid meet">
    <defs>
        <radialGradient id="gradient">
            <stop offset="0%"   stop-color="#f32323"/>
            <stop offset="100%" stop-color="#830000"/>
        </radialGradient>
        <filter id="shadow">
            <feOffset result="offOut" in="SourceAlpha" dx="0" dy="0" />
            <feGaussianBlur result="blurOut" in="offOut" stdDeviation="100" />
            <feBlend in="SourceGraphic" in2="blurOut" mode="normal" />
        </filter>
    </defs>
    <g transform="translate(-30,458) scale(0.12,-0.12)"
    fill="url(#gradient)" stroke="url(#gradient)" stroke-width='50' filter="url(#shadow)">
        <path d="M 1670 3703 C 1742 3557 1754 3512 1758 3386 C 1763 3219 1731 3096 1595 2770 C 1564 2696 1532 2615 1523 2590 C 1451 2385 1436 2350 1419 2350 C 1396 2350 1390 2363 1352 2475 C 1320 2570 1261 2709 1215 2798 C 1198 2829 1162 2872 1125 2905 C 1064 2958 1051 2964 855 3040 C 714 3093 664 3087 735 3023 C 920 2859 973 2790 1020 2650 C 1071 2496 1053 2259 968 1940 C 855 1520 842 1317 916 1100 C 962 967 1047 832 1168 703 C 1207 662 1315 570 1325 570 C 1337 570 1328 602 1305 635 C 1257 707 1237 777 1232 895 C 1227 1024 1243 1104 1292 1210 C 1331 1294 1354 1302 1370 1238 C 1402 1141 1417 1100 1428 1070 C 1462 977 1524 848 1568 785 C 1642 677 1771 571 1855 549 C 1983 505 2088 510 2135 534 C 2206 550 2257 576 2311 611 C 2417 680 2617 877 2651 945 C 2790 1172 2874 1339 2896 1399 C 2934 1472 3008 1658 3015 1690 C 3118 2043 3190 2326 3190 2353 C 3190 2374 3170 2371 3159 2349 C 3155 2341 3130 2288 3105 2230 C 3059 2125 3054 2115 3021 2056 C 2985 1993 2843 1813 2783 1755 C 2699 1675 2666 1650 2640 1650 C 2616 1650 2616 1641 2640 1785 C 2647 1824 2660 1905 2671 1965 C 2731 2311 2734 2600 2679 2816 C 2637 2999 2566 3145 2530 3186 C 2500 3240 2362 3379 2306 3424 C 2259 3462 2149 3536 2058 3591 C 1844 3700 1708.2275390625 3746.168212890625 1648 3760 L 1670 3703 Z"/>
    </g>
</svg>
